<svg width="200" height="200" viewBox="0 0 200 200" xmlns="http://www.w3.org/2000/svg">
  <!-- QR Code Grid Pattern -->
  <!-- Outer Frame -->
  <rect x="10" y="10" width="180" height="180" fill="none" stroke="black" stroke-width="4"/>
  
  <!-- Position Detection Patterns (3 corners) -->
  <!-- Top-left -->
  <rect x="20" y="20" width="50" height="50" fill="black"/>
  <rect x="30" y="30" width="30" height="30" fill="white"/>
  <rect x="40" y="40" width="10" height="10" fill="black"/>
  
  <!-- Top-right -->
  <rect x="130" y="20" width="50" height="50" fill="black"/>
  <rect x="140" y="30" width="30" height="30" fill="white"/>
  <rect x="150" y="40" width="10" height="10" fill="black"/>
  
  <!-- Bottom-left -->
  <rect x="20" y="130" width="50" height="50" fill="black"/>
  <rect x="30" y="140" width="30" height="30" fill="white"/>
  <rect x="40" y="150" width="10" height="10" fill="black"/>
  
  <!-- QR Code Data Pattern (simplified representation) -->
  <g fill="black">
    <!-- Row patterns -->
    <rect x="80" y="20" width="10" height="10"/>
    <rect x="100" y="20" width="10" height="10"/>
    <rect x="110" y="20" width="10" height="10"/>
    
    <rect x="90" y="30" width="10" height="10"/>
    <rect x="110" y="30" width="10" height="10"/>
    
    <rect x="80" y="40" width="10" height="10"/>
    <rect x="100" y="40" width="10" height="10"/>
    
    <rect x="20" y="80" width="10" height="10"/>
    <rect x="40" y="80" width="10" height="10"/>
    <rect x="50" y="80" width="10" height="10"/>
    <rect x="70" y="80" width="10" height="10"/>
    <rect x="90" y="80" width="10" height="10"/>
    <rect x="120" y="80" width="10" height="10"/>
    <rect x="130" y="80" width="10" height="10"/>
    <rect x="150" y="80" width="10" height="10"/>
    <rect x="170" y="80" width="10" height="10"/>
    
    <rect x="30" y="90" width="10" height="10"/>
    <rect x="60" y="90" width="10" height="10"/>
    <rect x="80" y="90" width="10" height="10"/>
    <rect x="100" y="90" width="10" height="10"/>
    <rect x="140" y="90" width="10" height="10"/>
    <rect x="160" y="90" width="10" height="10"/>
    
    <rect x="90" y="100" width="10" height="10"/>
    <rect x="110" y="100" width="10" height="10"/>
    <rect x="130" y="100" width="10" height="10"/>
    <rect x="150" y="100" width="10" height="10"/>
    <rect x="170" y="100" width="10" height="10"/>
    
    <rect x="20" y="110" width="10" height="10"/>
    <rect x="40" y="110" width="10" height="10"/>
    <rect x="60" y="110" width="10" height="10"/>
    <rect x="100" y="110" width="10" height="10"/>
    <rect x="120" y="110" width="10" height="10"/>
    <rect x="140" y="110" width="10" height="10"/>
    
    <rect x="90" y="120" width="10" height="10"/>
    <rect x="110" y="120" width="10" height="10"/>
    <rect x="150" y="120" width="10" height="10"/>
    <rect x="170" y="120" width="10" height="10"/>
    
    <rect x="80" y="130" width="10" height="10"/>
    <rect x="100" y="130" width="10" height="10"/>
    <rect x="110" y="130" width="10" height="10"/>
    <rect x="130" y="130" width="10" height="10"/>
    <rect x="150" y="130" width="10" height="10"/>
    
    <rect x="90" y="140" width="10" height="10"/>
    <rect x="110" y="140" width="10" height="10"/>
    <rect x="130" y="140" width="10" height="10"/>
    <rect x="150" y="140" width="10" height="10"/>
    <rect x="170" y="140" width="10" height="10"/>
    
    <rect x="80" y="150" width="10" height="10"/>
    <rect x="100" y="150" width="10" height="10"/>
    <rect x="120" y="150" width="10" height="10"/>
    <rect x="140" y="150" width="10" height="10"/>
    <rect x="160" y="150" width="10" height="10"/>
    
    <rect x="90" y="160" width="10" height="10"/>
    <rect x="110" y="160" width="10" height="10"/>
    <rect x="130" y="160" width="10" height="10"/>
    <rect x="150" y="160" width="10" height="10"/>
    <rect x="170" y="160" width="10" height="10"/>
    
    <rect x="80" y="170" width="10" height="10"/>
    <rect x="100" y="170" width="10" height="10"/>
    <rect x="120" y="170" width="10" height="10"/>
    <rect x="140" y="170" width="10" height="10"/>
    <rect x="160" y="170" width="10" height="10"/>
  </g>
</svg>